ffmpeg version 3.1.5 Copyright (c) 2000-2016 the FFmpeg developers
  built with Apple LLVM version 7.0.2 (clang-700.1.81)
  configuration: --prefix=/usr/local/Cellar/ffmpeg/3.1.5 --enable-shared --enable-pthreads --enable-gpl --enable-version3 --enable-hardcoded-tables --enable-avresample --cc=clang --host-cflags= --host-ldflags= --enable-opencl --enable-libx264 --enable-libmp3lame --enable-libxvid --enable-libfaac --disable-lzma --enable-nonfree --enable-vda
  libavutil      55. 28.100 / 55. 28.100
  libavcodec     57. 48.101 / 57. 48.101
  libavformat    57. 41.100 / 57. 41.100
  libavdevice    57.  0.101 / 57.  0.101
  libavfilter     6. 47.100 /  6. 47.100
  libavresample   3.  0.  0 /  3.  0.  0
  libswscale      4.  1.100 /  4.  1.100
  libswresample   2.  1.100 /  2.  1.100
  libpostproc    54.  0.100 / 54.  0.100
Input #0, mov,mp4,m4a,3gp,3g2,mj2, from 'videos/rafting.mp4':
  Metadata:
    major_brand     : mp42
    minor_version   : 0
    compatible_brands: mp42mp41isomavc1
    creation_time   : 2014-06-23 17:30:13
  Duration: 00:01:00.22, start: 0.000000, bitrate: 4643 kb/s
    Stream #0:0(und): Video: h264 (High) (avc1 / 0x31637661), yuv420p(tv, bt709), 1920x1080 [SAR 1:1 DAR 16:9], 4388 kb/s, 29.97 fps, 29.97 tbr, 30k tbn, 59.94 tbc (default)
    Metadata:
      creation_time   : 2014-06-23 17:30:13
      handler_name    : L-SMASH Video Handler
      encoder         : AVC Coding
    Stream #0:1(und): Audio: aac (LC) (mp4a / 0x6134706D), 48000 Hz, stereo, fltp, 256 kb/s (default)
    Metadata:
      creation_time   : 2014-06-23 17:30:13
      handler_name    : L-SMASH Audio Handler
[Parsed_showinfo_1 @ 0x7fcff8402fc0] config in time_base: 1/30000, frame_rate: 30000/1001
[Parsed_showinfo_1 @ 0x7fcff8402fc0] config out time_base: 0/0, frame_rate: 0/0
[null @ 0x7fcff8814600] Using AVStream.codec to pass codec parameters to muxers is deprecated, use AVStream.codecpar instead.
    Last message repeated 1 times
Output #0, null, to 'pipe:':
  Metadata:
    major_brand     : mp42
    minor_version   : 0
    compatible_brands: mp42mp41isomavc1
    encoder         : Lavf57.41.100
    Stream #0:0(und): Video: wrapped_avframe, rgb24, 1920x1080 [SAR 1:1 DAR 16:9], q=2-31, 200 kb/s, 29.97 fps, 29.97 tbn, 29.97 tbc (default)
    Metadata:
      creation_time   : 2014-06-23 17:30:13
      handler_name    : L-SMASH Video Handler
      encoder         : Lavc57.48.101 wrapped_avframe
    Stream #0:1(und): Audio: pcm_s16le, 48000 Hz, stereo, s16, 1536 kb/s (default)
    Metadata:
      creation_time   : 2014-06-23 17:30:13
      handler_name    : L-SMASH Audio Handler
      encoder         : Lavc57.48.101 pcm_s16le
Stream mapping:
  Stream #0:0 -> #0:0 (h264 (native) -> wrapped_avframe (native))
  Stream #0:1 -> #0:1 (aac (native) -> pcm_s16le (native))
Press [q] to stop, [?] for help
frame=    0 fps=0.0 q=0.0 size=N/A time=00:00:03.00 bitrate=N/A speed=5.99x    [Parsed_showinfo_1 @ 0x7fcff8402fc0] n:   0 pts: 145145 pts_time:4.83817 pos:   356317 fmt:rgb24 sar:1/1 s:1920x1080 i:P iskey:0 type:I checksum:24B3BDB0 plane_checksum:[24B3BDB0] mean:[90 ] stdev:[65.0 ]
frame=    1 fps=1.0 q=-0.0 size=N/A time=00:00:06.01 bitrate=N/A speed=5.99x    [Parsed_showinfo_1 @ 0x7fcff8402fc0] n:   1 pts: 232232 pts_time:7.74107 pos:  2810242 fmt:rgb24 sar:1/1 s:1920x1080 i:P iskey:0 type:I checksum:E0E271E3 plane_checksum:[E0E271E3] mean:[108 ] stdev:[63.3 ]
frame=    2 fps=1.3 q=-0.0 size=N/A time=00:00:08.02 bitrate=N/A speed=5.32x    [Parsed_showinfo_1 @ 0x7fcff8402fc0] n:   2 pts: 298298 pts_time:9.94327 pos:  4068724 fmt:rgb24 sar:1/1 s:1920x1080 i:P iskey:1 type:I checksum:86E4A8C1 plane_checksum:[86E4A8C1] mean:[105 ] stdev:[54.3 ]
frame=    3 fps=1.5 q=-0.0 size=N/A time=00:00:11.02 bitrate=N/A speed=5.48x    frame=    3 fps=1.2 q=-0.0 size=N/A time=00:00:13.03 bitrate=N/A speed=5.19x    frame=    3 fps=1.0 q=-0.0 size=N/A time=00:00:16.04 bitrate=N/A speed=5.31x    [Parsed_showinfo_1 @ 0x7fcff8402fc0] n:   3 pts: 499499 pts_time:16.65   pos:  8819553 fmt:rgb24 sar:1/1 s:1920x1080 i:P iskey:1 type:I checksum:443CEE7C plane_checksum:[443CEE7C] mean:[85 ] stdev:[59.2 ]
frame=    4 fps=1.1 q=-0.0 size=N/A time=00:00:18.04 bitrate=N/A speed= 5.1x    [Parsed_showinfo_1 @ 0x7fcff8402fc0] n:   4 pts: 628628 pts_time:20.9543 pos: 11905681 fmt:rgb24 sar:1/1 s:1920x1080 i:P iskey:1 type:I checksum:CB55226E plane_checksum:[CB55226E] mean:[101 ] stdev:[69.3 ]
frame=    5 fps=1.2 q=-0.0 size=N/A time=00:00:21.05 bitrate=N/A speed=5.21x    frame=    5 fps=1.1 q=-0.0 size=N/A time=00:00:23.06 bitrate=N/A speed=5.08x    [Parsed_showinfo_1 @ 0x7fcff8402fc0] n:   5 pts: 723723 pts_time:24.1241 pos: 13732535 fmt:rgb24 sar:1/1 s:1920x1080 i:P iskey:0 type:I checksum:E64BBE80 plane_checksum:[E64BBE80] mean:[128 ] stdev:[63.0 ]
frame=    6 fps=1.2 q=-0.0 size=N/A time=00:00:26.06 bitrate=N/A speed=5.17x    [Parsed_showinfo_1 @ 0x7fcff8402fc0] n:   6 pts: 831831 pts_time:27.7277 pos: 15875693 fmt:rgb24 sar:1/1 s:1920x1080 i:P iskey:1 type:I checksum:619A4168 plane_checksum:[619A4168] mean:[113 ] stdev:[73.5 ]
frame=    7 fps=1.3 q=-0.0 size=N/A time=00:00:28.07 bitrate=N/A speed=5.06x    [Parsed_showinfo_1 @ 0x7fcff8402fc0] n:   7 pts: 934934 pts_time:31.1645 pos: 18413725 fmt:rgb24 sar:1/1 s:1920x1080 i:P iskey:0 type:I checksum:B6B9B9D0 plane_checksum:[B6B9B9D0] mean:[77 ] stdev:[63.0 ]
frame=    8 fps=1.3 q=-0.0 size=N/A time=00:00:31.19 bitrate=N/A speed=5.16x    [Parsed_showinfo_1 @ 0x7fcff8402fc0] n:   8 pts:1002001 pts_time:33.4    pos: 19853096 fmt:rgb24 sar:1/1 s:1920x1080 i:P iskey:1 type:I checksum:FAEEB478 plane_checksum:[FAEEB478] mean:[109 ] stdev:[68.8 ]
frame=    9 fps=1.4 q=-0.0 size=N/A time=00:00:34.09 bitrate=N/A speed= 5.2x    [Parsed_showinfo_1 @ 0x7fcff8402fc0] n:   9 pts:1096095 pts_time:36.5365 pos: 21476410 fmt:rgb24 sar:1/1 s:1920x1080 i:P iskey:0 type:I checksum:ED635221 plane_checksum:[ED635221] mean:[129 ] stdev:[66.0 ]
frame=   10 fps=1.4 q=-0.0 size=N/A time=00:00:36.56 bitrate=N/A speed=5.18x    [Parsed_showinfo_1 @ 0x7fcff8402fc0] n:  10 pts:1146145 pts_time:38.2048 pos: 22857461 fmt:rgb24 sar:1/1 s:1920x1080 i:P iskey:0 type:P checksum:4481C354 plane_checksum:[4481C354] mean:[129 ] stdev:[61.9 ]
frame=   11 fps=1.5 q=-0.0 size=N/A time=00:00:39.10 bitrate=N/A speed=5.18x    [Parsed_showinfo_1 @ 0x7fcff8402fc0] n:  11 pts:1214213 pts_time:40.4738 pos: 24505686 fmt:rgb24 sar:1/1 s:1920x1080 i:P iskey:0 type:P checksum:680C8094 plane_checksum:[680C8094] mean:[88 ] stdev:[74.7 ]
[Parsed_showinfo_1 @ 0x7fcff8402fc0] n:  12 pts:1218217 pts_time:40.6072 pos: 24566971 fmt:rgb24 sar:1/1 s:1920x1080 i:P iskey:0 type:P checksum:C3DCCE8E plane_checksum:[C3DCCE8E] mean:[126 ] stdev:[64.3 ]
[Parsed_showinfo_1 @ 0x7fcff8402fc0] n:  13 pts:1228227 pts_time:40.9409 pos: 24808543 fmt:rgb24 sar:1/1 s:1920x1080 i:P iskey:0 type:I checksum:67658F6A plane_checksum:[67658F6A] mean:[80 ] stdev:[69.1 ]
frame=   14 fps=1.7 q=-0.0 size=N/A time=00:00:41.10 bitrate=N/A speed= 5.1x    [Parsed_showinfo_1 @ 0x7fcff8402fc0] n:  14 pts:1301300 pts_time:43.3767 pos: 26118258 fmt:rgb24 sar:1/1 s:1920x1080 i:P iskey:0 type:P checksum:B59A1073 plane_checksum:[B59A1073] mean:[88 ] stdev:[69.3 ]
frame=   15 fps=1.8 q=-0.0 size=N/A time=00:00:44.11 bitrate=N/A speed=5.15x    frame=   15 fps=1.7 q=-0.0 size=N/A time=00:00:47.12 bitrate=N/A speed= 5.2x    frame=   15 fps=1.6 q=-0.0 size=N/A time=00:00:49.13 bitrate=N/A speed=5.13x    [Parsed_showinfo_1 @ 0x7fcff8402fc0] n:  15 pts:1562561 pts_time:52.0854 pos: 32007773 fmt:rgb24 sar:1/1 s:1920x1080 i:P iskey:0 type:I checksum:9019B003 plane_checksum:[9019B003] mean:[90 ] stdev:[64.7 ]
frame=   16 fps=1.6 q=-0.0 size=N/A time=00:00:52.13 bitrate=N/A speed=5.18x    frame=   16 fps=1.5 q=-0.0 size=N/A time=00:00:54.14 bitrate=N/A speed=5.12x    frame=   16 fps=1.4 q=-0.0 size=N/A time=00:00:56.14 bitrate=N/A speed=5.06x    [Parsed_showinfo_1 @ 0x7fcff8402fc0] n:  16 pts:1683682 pts_time:56.1227 pos: 34716468 fmt:rgb24 sar:1/1 s:1920x1080 i:P iskey:1 type:I checksum:5C6176CA plane_checksum:[5C6176CA] mean:[4 ] stdev:[23.6 ]
frame=   17 fps=1.5 q=-0.0 size=N/A time=00:00:59.15 bitrate=N/A speed= 5.1x    frame=   17 fps=1.5 q=-0.0 Lsize=N/A time=00:01:00.22 bitrate=N/A speed=5.15x    
video:8kB audio:11292kB subtitle:0kB other streams:0kB global headers:0kB muxing overhead: unknown
